<?xml version="1.0" encoding="UTF-8" standalone="no"?>
<!-- Created with Inkscape (http://www.inkscape.org/) -->

<svg
   xmlns:i="http://ns.adobe.com/AdobeIllustrator/10.0/"
   xmlns:dc="http://purl.org/dc/elements/1.1/"
   xmlns:cc="http://creativecommons.org/ns#"
   xmlns:rdf="http://www.w3.org/1999/02/22-rdf-syntax-ns#"
   xmlns:svg="http://www.w3.org/2000/svg"
   xmlns="http://www.w3.org/2000/svg"
   xmlns:xlink="http://www.w3.org/1999/xlink"
   xmlns:sodipodi="http://sodipodi.sourceforge.net/DTD/sodipodi-0.dtd"
   xmlns:inkscape="http://www.inkscape.org/namespaces/inkscape"
   width="88"
   height="32"
   id="svg3137"
   version="1.1"
   inkscape:version="0.48.4 r9939"
   sodipodi:docname="debianfork.svg"
   inkscape:export-filename="/mnt/xp+/ale/g/fork-debian/debianfork.png"
   inkscape:export-xdpi="90"
   inkscape:export-ydpi="90"
   enable-background="new">
  <title
     id="title4178">Debian Fork</title>
  <defs
     id="defs3139">
    <filter
       inkscape:collect="always"
       id="filter4022">
      <feGaussianBlur
         inkscape:collect="always"
         stdDeviation="0.47132982"
         id="feGaussianBlur4024" />
    </filter>
    <filter
       id="filter4928"
       inkscape:label="Darken edges"
       inkscape:menu="Shadows and Glows"
       inkscape:menu-tooltip="Darken the edges with an inner blur"
       color-interpolation-filters="sRGB">
      <feGaussianBlur
         id="feGaussianBlur4930"
         result="result6"
         stdDeviation="1.5" />
      <feComposite
         id="feComposite4932"
         in2="result6"
         operator="atop"
         in="SourceGraphic"
         result="result8" />
      <feComposite
         id="feComposite4934"
         in2="SourceAlpha"
         in="result8"
         operator="atop"
         result="result9" />
    </filter>
    <filter
       id="filter11014"
       style="color-interpolation-filters:sRGB;"
       inkscape:label="Drop Shadow">
      <feFlood
         id="feFlood11016"
         flood-opacity="0.7"
         flood-color="rgb(0,0,0)"
         result="flood" />
      <feComposite
         id="feComposite11018"
         in2="SourceGraphic"
         in="flood"
         operator="in"
         result="composite1" />
      <feGaussianBlur
         id="feGaussianBlur11020"
         in="composite"
         stdDeviation="0.5"
         result="blur" />
      <feOffset
         id="feOffset11022"
         dx="1"
         dy="0.5"
         result="offset" />
      <feComposite
         id="feComposite11024"
         in2="offset"
         in="SourceGraphic"
         operator="over"
         result="composite2" />
    </filter>
    <filter
       id="filter11038"
       style="color-interpolation-filters:sRGB;"
       inkscape:label="Drop Shadow">
      <feFlood
         id="feFlood11040"
         flood-opacity="0.7"
         flood-color="rgb(0,0,0)"
         result="flood" />
      <feComposite
         id="feComposite11042"
         in2="SourceGraphic"
         in="flood"
         operator="in"
         result="composite1" />
      <feGaussianBlur
         id="feGaussianBlur11044"
         in="composite"
         stdDeviation="0.5"
         result="blur" />
      <feOffset
         id="feOffset11046"
         dx="1"
         dy="0.5"
         result="offset" />
      <feComposite
         id="feComposite11048"
         in2="offset"
         in="SourceGraphic"
         operator="over"
         result="composite2" />
    </filter>
    <filter
       id="filter11134">
      <feGaussianBlur
         stdDeviation="0.0029805642"
         id="feGaussianBlur11136" />
    </filter>
    <filter
       id="filter11140">
      <feGaussianBlur
         stdDeviation="0.0032090984"
         id="feGaussianBlur11142" />
    </filter>
    <filter
       id="filter11146">
      <feGaussianBlur
         stdDeviation="0.0012224519"
         id="feGaussianBlur11148" />
    </filter>
    <filter
       id="filter11152">
      <feGaussianBlur
         stdDeviation="0.0018868962"
         id="feGaussianBlur11154" />
    </filter>
    <filter
       id="filter4054">
      <feGaussianBlur
         stdDeviation="0.0032700286"
         id="feGaussianBlur4056" />
    </filter>
    <filter
       id="filter4060">
      <feGaussianBlur
         stdDeviation="0.0043746736"
         id="feGaussianBlur4062" />
    </filter>
    <filter
       id="filter4068">
      <feGaussianBlur
         stdDeviation="0.00012504919"
         id="feGaussianBlur4070" />
    </filter>
    <filter
       id="filter4078">
      <feGaussianBlur
         stdDeviation="0.0010561777"
         id="feGaussianBlur4080" />
    </filter>
    <filter
       id="filter4088">
      <feGaussianBlur
         stdDeviation="0.0042950903"
         id="feGaussianBlur4090" />
    </filter>
    <filter
       id="filter4094">
      <feGaussianBlur
         stdDeviation="0.00093145073"
         id="feGaussianBlur4096" />
    </filter>
    <filter
       id="filter4100">
      <feGaussianBlur
         stdDeviation="0.00062232521"
         id="feGaussianBlur4102" />
    </filter>
    <filter
       id="filter4108">
      <feGaussianBlur
         stdDeviation="0.0015310401"
         id="feGaussianBlur4110" />
    </filter>
    <filter
       id="filter4114">
      <feGaussianBlur
         stdDeviation="0.00040138381"
         id="feGaussianBlur4116" />
    </filter>
    <filter
       id="filter4120">
      <feGaussianBlur
         stdDeviation="0.0016079691"
         id="feGaussianBlur4122" />
    </filter>
  </defs>
  <sodipodi:namedview
     id="base"
     pagecolor="#000000"
     bordercolor="#666666"
     borderopacity="1.0"
     inkscape:pageopacity="0"
     inkscape:pageshadow="2"
     inkscape:zoom="7.919596"
     inkscape:cx="50.035983"
     inkscape:cy="2.3946166"
     inkscape:document-units="px"
     inkscape:current-layer="layer4"
     showgrid="true"
     inkscape:window-width="1364"
     inkscape:window-height="747"
     inkscape:window-x="0"
     inkscape:window-y="19"
     inkscape:window-maximized="1"
     showguides="true"
     inkscape:guide-bbox="true"
     inkscape:snap-page="true"
     inkscape:snap-global="false">
    <inkscape:grid
       type="xygrid"
       id="grid11072"
       empspacing="5"
       visible="true"
       enabled="true"
       snapvisiblegridlinesonly="true" />
  </sodipodi:namedview>
  <metadata
     id="metadata3142">
    <rdf:RDF>
      <cc:Work
         rdf:about="">
        <dc:format>image/svg+xml</dc:format>
        <dc:type
           rdf:resource="http://purl.org/dc/dcmitype/StillImage" />
        <dc:title>Debian Fork</dc:title>
        <cc:license
           rdf:resource="http://creativecommons.org/licenses/by/3.0/" />
        <dc:creator>
          <cc:Agent>
            <dc:title>Ale</dc:title>
          </cc:Agent>
        </dc:creator>
        <dc:date>22 Oct 2014</dc:date>
      </cc:Work>
      <cc:License
         rdf:about="http://creativecommons.org/licenses/by/3.0/">
        <cc:permits
           rdf:resource="http://creativecommons.org/ns#Reproduction" />
        <cc:permits
           rdf:resource="http://creativecommons.org/ns#Distribution" />
        <cc:requires
           rdf:resource="http://creativecommons.org/ns#Notice" />
        <cc:requires
           rdf:resource="http://creativecommons.org/ns#Attribution" />
        <cc:permits
           rdf:resource="http://creativecommons.org/ns#DerivativeWorks" />
      </cc:License>
    </rdf:RDF>
  </metadata>
  <g
     inkscape:groupmode="layer"
     id="layer4"
     inkscape:label="black" />
  <g
     inkscape:groupmode="layer"
     id="layer2"
     inkscape:label="fork">
    <g
       id="g11158"
       transform="matrix(-1.1410927,-0.13560707,-0.15618295,0.9907627,98.035729,8.5251577)">
      <path
         sodipodi:nodetypes="czssszzzzzzzzzzzzzzzzzzszzzc"
         inkscape:connector-curvature="0"
         id="path3236"
         d="m 14.494947,14.071022 c -2.379241,-1.381717 -3.894517,-0.746343 -4.270668,0.487875 -0.3761508,1.234223 1.284456,0.959046 2.870808,1.206923 7.862022,1.228488 20.885209,1.830578 32.144948,5.668219 3.987965,1.359211 7.175449,1.807217 7.844946,2.265583 1.468886,1.005659 2.815998,2.42607 5.85687,4.36762 3.040869,1.941547 8.399165,2.121177 10.105767,2.219718 1.706603,0.09855 7.254345,-0.543787 8.827822,-0.951232 1.573471,-0.407515 2.238741,-0.798946 2.144667,-1.394634 -0.09408,-0.595687 -1.133436,-0.335876 -2.326805,-0.07161 -1.193369,0.264272 -6.793177,1.077589 -8.429356,1.022242 -1.636175,-0.05534 -3.144141,-0.399893 -3.01847,-0.982908 0.125674,-0.583018 1.595868,-0.390703 3.234797,-0.412331 1.63893,-0.02163 6.778023,-0.756742 8.030888,-1.093241 1.252861,-0.336481 2.176308,-0.491817 2.128213,-1.220081 -0.0481,-0.728264 -1.04138,-0.428127 -2.310351,-0.246154 -1.268963,0.181973 -5.631093,1.16482 -7.632423,1.164241 -2.001331,-5.76e-4 -3.358473,-0.07397 -3.329537,-0.68831 0.02893,-0.61434 1.563778,-0.726382 3.545863,-0.706926 1.982084,0.01945 6.12578,-1.080589 7.233957,-1.235242 1.108174,-0.154655 2.104446,-0.482593 1.977029,-1.156079 -0.127425,-0.673487 -1.065109,-0.481331 -2.159167,-0.310157 -1.094061,0.171176 -4.840975,1.289623 -6.835492,1.306244 -1.994517,0.01663 -6.165662,-0.590478 -7.537159,-1.073089 -1.695824,-0.596739 -4.48683,-1.05192 -5.62989,-1.291749 -1.143059,-0.239829 -3.587161,0.02793 -10.96117,-1.82203 -7.374009,-1.849959 -30.086053,-4.493367 -31.50608,-5.05284 -1.420027,-0.559472 -7e-6,-6.2e-5 -7e-6,-5.2e-5 z"
         style="fill:#612c0c;fill-opacity:1;stroke:#000000;stroke-width:0.14216602px;stroke-linecap:butt;stroke-linejoin:miter;stroke-opacity:1" />
      <path
         inkscape:transform-center-y="-2.3991123"
         inkscape:transform-center-x="19.192898"
         style="fill:#e36b23;fill-opacity:1;stroke:#000000;stroke-width:0.14216602px;stroke-linecap:butt;stroke-linejoin:miter;stroke-opacity:1"
         d="m 14.494947,13.704951 c -2.379241,-1.381717 -3.894517,-0.746343 -4.270668,0.487875 -0.3761508,1.234223 1.284456,0.959046 2.870808,1.206923 7.862022,1.228488 20.885209,1.830578 32.144948,5.668219 3.987965,1.359211 7.175449,1.807217 7.844946,2.265583 1.468886,1.005659 2.815998,2.42607 5.85687,4.36762 3.040869,1.941547 8.399165,2.121177 10.105767,2.219718 1.706603,0.09855 7.254345,-0.543787 8.827822,-0.951232 1.573471,-0.407515 2.238741,-0.798946 2.144667,-1.394634 -0.09408,-0.595687 -1.133436,-0.335876 -2.326805,-0.07161 -1.193369,0.264272 -6.793177,1.077589 -8.429356,1.022242 -1.636175,-0.05534 -3.144141,-0.399893 -3.01847,-0.982908 0.125674,-0.583018 1.595868,-0.390703 3.234797,-0.412331 1.63893,-0.02163 6.778023,-0.756742 8.030888,-1.093241 1.252861,-0.336481 2.176308,-0.491817 2.128213,-1.220081 -0.0481,-0.728264 -1.04138,-0.428127 -2.310351,-0.246154 -1.268963,0.181973 -5.631093,1.16482 -7.632423,1.164241 -2.001331,-5.76e-4 -3.358473,-0.07397 -3.329537,-0.68831 0.02893,-0.61434 1.563778,-0.726382 3.545863,-0.706926 1.982084,0.01945 6.12578,-1.080589 7.233957,-1.235242 1.108174,-0.154655 2.104446,-0.482593 1.977029,-1.156079 -0.127425,-0.673487 -1.065109,-0.481331 -2.159167,-0.310157 -1.094061,0.171176 -4.840975,1.289623 -6.835492,1.306244 -1.994517,0.01663 -6.165662,-0.590478 -7.537159,-1.073089 -1.695824,-0.596739 -4.48683,-1.05192 -5.62989,-1.291749 -1.143059,-0.239829 -3.587161,0.02793 -10.96117,-1.82203 -7.374009,-1.849959 -30.086053,-4.493367 -31.50608,-5.05284 -1.420027,-0.559472 -7e-6,-6.2e-5 -7e-6,-5.2e-5 z"
         id="path11156"
         inkscape:connector-curvature="0"
         sodipodi:nodetypes="czssszzzzzzzzzzzzzzzzzzszzzc" />
      <path
         transform="matrix(-0.07051026,0.0367539,0.0367539,0.07051026,56.959686,27.653522)"
         sodipodi:nodetypes="ccccc"
         inkscape:connector-curvature="0"
         id="path4016"
         d="m -35.043329,-49.994924 c 3.030457,-4.419417 8.643218,-9.94552 16.4719,-11.219362 -0.505076,6.68111 -4.696699,12.953676 -10,30 3.977574,-11.514029 10.672691,-28.424203 11.227302,-31.030791 5.980493,-5.076551 16.2401912,-14.7786 23.3010752,-22.234895"
         style="fill:none;stroke:#612c0c;stroke-width:2.20000005;stroke-linecap:round;stroke-linejoin:miter;stroke-miterlimit:4;stroke-opacity:1;stroke-dasharray:none;filter:url(#filter4022)" />
    </g>
  </g>
  <g
     inkscape:groupmode="layer"
     id="layer5"
     inkscape:label="ForkDebian"
     style="display:inline">
    <text
       xml:space="preserve"
       style="font-size:18.71201134px;font-style:normal;font-variant:normal;font-weight:normal;font-stretch:normal;line-height:125%;letter-spacing:0px;word-spacing:0px;fill:#e36b23;fill-opacity:1;stroke:none;filter:url(#filter11038);font-family:Oswald;-inkscape-font-specification:Oswald"
       x="47.289532"
       y="17.737495"
       id="text3227"
       sodipodi:linespacing="125%"><tspan
         sodipodi:role="line"
         id="tspan3229"
         x="47.289532"
         y="17.737495">fork</tspan></text>
    <g
       id="g10681"
       style="filter:url(#filter11014)"
       transform="matrix(1.1237557,0,0,1.1237557,-39.651386,-15.635571)">
      <path
         style="fill:#e36b23;fill-opacity:1"
         id="path3119"
         d="m 46.203532,24.287389 c -0.01368,0.01429 -0.01368,2.282157 -0.04196,2.874132 -0.02797,0.478566 -0.07054,1.507148 -1.084831,1.507148 -1.042568,0 -1.296141,-1.197631 -1.380665,-1.718459 -0.09851,-0.577684 -0.09851,-1.057162 -0.09851,-1.267865 0,-0.676499 0.04226,-2.564919 1.634239,-2.564919 0.479174,0 0.746733,0.141381 0.958044,0.253573 l 0.01368,0.91639 z m -4.085445,1.662819 c 0,3.972644 2.113413,3.972644 2.423234,3.972644 0.87352,0 1.437218,-0.479174 1.676501,-1.310127 l 0.02828,1.253575 c 0.267863,-0.01429 0.535422,-0.04226 0.97203,-0.04226 0.155063,0 0.281545,0 0.39465,0.01429 0.1128,0 0.225297,0.01368 0.352083,0.02797 -0.225297,-0.450594 -0.394345,-1.464886 -0.394345,-3.663431 0,-2.141385 0,-5.761946 0.183034,-6.861066 -0.506842,0.239891 -0.944058,0.394953 -1.902101,0.479174 0.380359,0.408635 0.380359,0.619946 0.380359,2.479178 -0.267255,-0.08422 -0.605656,-0.183035 -1.183341,-0.183035 -2.521744,3.04e-4 -2.93038,2.198241 -2.93038,3.833088"
         i:knockout="Off"
         inkscape:connector-curvature="0" />
      <path
         style="fill:#e36b23;fill-opacity:1"
         id="path3121"
         d="m 49.758723,25.230839 c 0.01429,-1.169355 0.253877,-2.211923 1.253879,-2.211923 1.099121,0 1.183037,1.211312 1.155065,2.211923 h -2.408944 z m 3.803596,0.141381 c 0,-1.64853 -0.323808,-3.269086 -2.408944,-3.269086 -2.873828,0 -2.873828,3.184865 -2.873828,3.860452 0,2.859841 1.281851,3.986934 3.437526,3.986934 0.957436,0 1.422928,-0.140164 1.676501,-0.211311 -0.01399,-0.507146 0.05625,-0.831257 0.141381,-1.267865 -0.296444,0.183643 -0.676803,0.422926 -1.522047,0.422926 -2.197937,0 -2.226213,-2.00122 -2.226213,-2.691401 h 3.74826 l 0.02736,-0.830649"
         i:knockout="Off"
         inkscape:connector-curvature="0" />
      <path
         style="fill:#e36b23;fill-opacity:1"
         id="path3123"
         d="m 58.145788,25.977876 c 0,1.310127 -0.239283,3.071456 -1.873522,3.071456 -0.225601,0 -0.507146,-0.04287 -0.69018,-0.08483 -0.02828,-0.507146 -0.02828,-1.380666 -0.02828,-2.394958 0,-1.211921 0.126483,-1.844941 0.225601,-2.155675 0.295531,-1.000002 0.95774,-1.013684 1.084223,-1.013684 1.070844,0 1.282155,1.479177 1.282155,2.577689 z m -4.043183,1.535728 c 0,1.042873 0,1.634239 -0.169048,2.084833 0.577684,0.225601 1.295837,0.352083 2.155675,0.352083 0.549408,0 2.141384,0 3.000614,-1.760721 0.408635,-0.817271 0.549408,-1.916392 0.549408,-2.747649 0,-0.507146 -0.05655,-1.619949 -0.464884,-2.324724 -0.394041,-0.661601 -1.028278,-1.000002 -1.704169,-1.000002 -1.352693,0 -1.747039,1.127092 -1.958046,1.704777 0,-0.718457 0.01368,-3.226215 0.126179,-4.508371 -0.915478,0.422926 -1.47948,0.492856 -2.084833,0.549409 0.549409,0.224993 0.549409,1.155672 0.549409,4.184867 v 3.465498"
         i:knockout="Off"
         inkscape:connector-curvature="0" />
      <path
         style="fill:#e36b23;fill-opacity:1"
         id="path3125"
         d="m 62.347682,29.8663 c -0.282154,-0.04226 -0.479783,-0.07054 -0.888418,-0.07054 -0.449986,0 -0.760719,0.02858 -1.084223,0.07054 0.140773,-0.267863 0.197021,-0.394954 0.239283,-1.310128 0.05655,-1.254183 0.07054,-4.607489 -0.02797,-5.31196 -0.07054,-0.535726 -0.19702,-0.619946 -0.394345,-0.760719 1.155064,-0.1128 1.479176,-0.19702 2.014294,-0.450593 -0.112193,0.619338 -0.127091,0.930071 -0.127091,1.873521 -0.02767,4.861366 -0.04196,5.382194 0.268472,5.959879"
         i:knockout="Off"
         inkscape:connector-curvature="0" />
      <path
         style="fill:#e36b23;fill-opacity:1"
         id="path3127"
         d="m 66.859092,25.878757 c -0.02797,0.88781 -0.04226,1.507757 -0.282153,2.000613 -0.295835,0.634236 -0.788691,0.817271 -1.155065,0.817271 -0.846155,0 -1.028582,-0.704167 -1.028582,-1.394348 0,-1.324113 1.183645,-1.423536 1.718459,-1.423536 h 0.747341 z m -3.874742,1.733358 c 0,0.887809 0.267864,1.775011 1.057163,2.155674 0.352083,0.155063 0.704167,0.155063 0.817271,0.155063 1.296446,0 1.732749,-0.958348 2.000612,-1.550018 -0.01429,0.619946 0,1.000002 0.04226,1.493466 0.253573,-0.01429 0.507146,-0.04226 0.930071,-0.04226 0.239283,0 0.464884,0.02797 0.704167,0.04226 -0.155062,-0.239283 -0.239283,-0.380664 -0.282153,-0.930072 -0.02797,-0.535118 -0.02797,-1.07054 -0.02797,-1.817273 l 0.01429,-2.874132 c 0,-1.071149 -0.282153,-2.127703 -2.395566,-2.127703 -1.394347,0 -2.211315,0.422926 -2.61995,0.634236 0.169352,0.310126 0.310125,0.577077 0.436607,1.183645 0.550017,-0.479174 1.268474,-0.732747 2.000612,-0.732747 1.169963,0 1.169963,0.775009 1.169963,1.873522 -0.267863,-0.01368 -0.493464,-0.04165 -0.874127,-0.04165 -1.78991,3.04e-4 -2.973251,0.689573 -2.973251,2.577993"
         i:knockout="Off"
         inkscape:connector-curvature="0" />
      <path
         style="fill:#e36b23;fill-opacity:1"
         id="path3129"
         d="m 74.974037,28.471648 c 0.01429,0.479174 0.01429,0.98632 0.211311,1.394956 -0.310429,-0.02797 -0.493464,-0.07054 -1.07054,-0.07054 -0.338402,0 -0.521436,0.02858 -0.789299,0.07054 0.05594,-0.183035 0.08483,-0.253573 0.1128,-0.493464 0.04226,-0.323503 0.07054,-1.408638 0.07054,-1.789302 V 26.0624 c 0,-0.662208 0,-1.620557 -0.04287,-1.95835 -0.02797,-0.239283 -0.0979,-0.887202 -0.915782,-0.887202 -0.802981,0 -1.07054,0.591367 -1.169354,1.070541 -0.112193,0.492856 -0.112193,1.028582 -0.112193,3.113415 0.01368,1.803591 0.01368,1.972032 0.154455,2.465496 -0.239283,-0.02797 -0.535118,-0.05594 -0.95774,-0.05594 -0.338401,0 -0.563698,0.01368 -0.844939,0.05594 0.09851,-0.225601 0.155062,-0.338402 0.183034,-1.127093 0.02858,-0.775009 0.08483,-4.579213 -0.04287,-5.4804 -0.06993,-0.550017 -0.211311,-0.676499 -0.365765,-0.817272 1.141382,-0.05655 1.507148,-0.239891 1.859839,-0.422317 v 1.492858 c 0.168745,-0.437216 0.520828,-1.409246 1.930074,-1.409246 1.761329,0 1.775011,1.282155 1.789301,2.127094 v 4.241724"
         i:knockout="Off"
         inkscape:connector-curvature="0" />
      <path
         id="path3131"
         d="m 63.002278,19.503401 -1.702778,1.70189 -1.701888,-1.70189 1.701888,-1.701888 1.702778,1.701888"
         i:knockout="Off"
         inkscape:connector-curvature="0"
         style="fill:#a80030" />
    </g>
  </g>
  <g
     inkscape:groupmode="layer"
     id="layer3"
     inkscape:label="debian"
     style="display:inline">
    <g
       id="g11116"
       inkscape:tile-cx="9.300067"
       inkscape:tile-cy="25.279165"
       inkscape:tile-w="7.6394588"
       inkscape:tile-h="11.827155"
       inkscape:tile-x0="5.4401305"
       inkscape:tile-y0="19.290626"
       transform="matrix(1.3272814,0,0,1.0790253,4.1201803,-1.987907)">
      <path
         transform="matrix(0.10522281,-0.02234674,0.00614891,0.1300007,4.500965,28.134332)"
         i:knockout="Off"
         d="m 54.045081,-11.404941 c -1.494,0.02 0.281,0.768 2.232,1.069 0.541,-0.422 1.027,-0.846 1.463,-1.26 -1.213,0.297 -2.449,0.304 -3.695,0.191"
         id="path4254"
         inkscape:connector-curvature="0"
         style="fill:#a80030;filter:url(#filter4928)" />
      <path
         transform="matrix(0.10522281,-0.02234674,0.00614891,0.1300007,4.500965,28.134332)"
         i:knockout="Off"
         d="m 62.062081,-13.403941 c 0.893,-1.229 1.541,-2.573 1.77,-3.963 -0.201,0.99 -0.736,1.845 -1.244,2.749 -2.793,1.759 -0.264,-1.044 -0.002,-2.111 -3.002,3.783 -0.414,2.268 -0.524,3.325"
         id="path4256"
         inkscape:connector-curvature="0"
         style="fill:#a80030;filter:url(#filter4928)" />
      <path
         transform="matrix(0.10522281,-0.02234674,0.00614891,0.1300007,4.500965,28.134332)"
         i:knockout="Off"
         d="m 65.025081,-21.107941 c 0.182,-2.691 -0.529,-1.839 -0.768,-0.814 0.278,0.146 0.499,1.898 0.768,0.814"
         id="path4258"
         inkscape:connector-curvature="0"
         style="fill:#a80030;filter:url(#filter4928)" />
      <path
         transform="matrix(0.10522281,-0.02234674,0.00614891,0.1300007,4.500965,28.134332)"
         i:knockout="Off"
         d="m 48.377081,-57.886941 c 0.798,0.142 1.724,0.252 1.591,0.443 0.876,-0.193 1.073,-0.367 -1.591,-0.443"
         id="path4260"
         inkscape:connector-curvature="0"
         style="fill:#a80030;filter:url(#filter4928)" />
      <path
         transform="matrix(0.10522281,-0.02234674,0.00614891,0.1300007,4.500965,28.134332)"
         i:knockout="Off"
         d="m 49.969081,-57.443941 -0.561,0.117 0.523,-0.048 0.038,-0.069"
         id="path4262"
         inkscape:connector-curvature="0"
         style="fill:#a80030;filter:url(#filter4928)" />
      <path
         transform="matrix(0.10522281,-0.02234674,0.00614891,0.1300007,4.500965,28.134332)"
         i:knockout="Off"
         d="m 74.838081,-20.087941 c 0.09,2.416 -0.705,3.59 -1.424,5.666 l -1.293,0.643 c -1.057,2.054 0.105,1.304 -0.652,2.937 -1.652,1.4670001 -5.006,4.5890001 -6.08,4.8750001 -0.785,-0.017 0.531,-0.926 0.703,-1.281 -2.209,1.516 -1.773,2.276 -5.152,3.199 l -0.098,-0.221 c -8.33,3.92000004 -19.902,-3.847 -19.75,-14.4430001 -0.088,0.672 -0.253,0.504 -0.437,0.774 -0.43,-5.451 2.518,-10.926 7.49,-13.165 4.863,-2.406 10.564,-1.42 14.045,1.829 -1.912,-2.506 -5.721,-5.163 -10.232,-4.917 -4.421,0.072 -8.558,2.881 -9.938,5.932 -2.264,1.425 -2.528,5.496 -3.514,6.242 -1.329,9.76 2.497,13.9750001 8.97,18.9360001 1.016,0.686 0.286,0.791 0.422,1.313 -2.15,-1.006 -4.118,-2.526 -5.738,-4.387 0.86,1.257 1.787,2.479 2.986,3.439 -2.029,-0.685 -4.738,-4.913 -5.527,-5.085 3.495,6.258 14.178,10.975 19.775,8.63400004 -2.59,0.096 -5.879,0.053 -8.787,-1.022 -1.225,-0.629 -2.884,-1.93000004 -2.587,-2.17300004 7.636,2.85100004 15.522,2.15800004 22.128,-3.137 1.682,-1.31 3.518,-3.537 4.049,-3.567 -0.799,1.202 0.137,0.578 -0.477,1.639 1.672,-2.7010001 -0.729,-1.1 1.73,-4.6640001 l 0.908,1.25 c -0.34,-2.244 2.785,-4.966 2.467,-8.512 0.717,-1.084 0.799,1.168 0.039,3.662 1.055,-2.767 0.279,-3.212 0.549,-5.496 0.291,0.768 0.678,1.583 0.875,2.394 -0.688,-2.675 0.703,-4.503 1.049,-6.058 -0.342,-0.15 -1.061,1.182 -1.227,-1.976 0.025,-1.372 0.383,-0.719 0.52,-1.057 -0.268,-0.155 -0.975,-1.207 -1.404,-3.224 0.309,-0.475 0.832,1.229 1.256,1.298 -0.273,-1.603 -0.742,-2.826 -0.762,-4.057 -1.24,-2.59 -0.439,0.346 -1.443,-1.112 -1.32,-4.114 1.094,-0.955 1.258,-2.823 1.998,2.895 3.137,7.385 3.662,9.244 -0.4,-2.267 -1.045,-4.464 -1.834,-6.589 0.609,0.257 -0.979,-4.663 0.791,-1.405 -1.889,-6.945 -8.078,-13.435 -13.773,-16.479 0.695,0.637 1.574,1.437 1.26,1.563 -2.834,-1.685 -2.336,-1.818 -2.742,-2.53 -2.305,-0.939 -2.459,0.077 -3.984,0.002 -4.35,-2.308 -5.188,-2.063 -9.191,-3.507 l 0.182,0.852 c -2.881,-0.96 -3.357,0.362 -6.47,0.002 -0.189,-0.147 0.998,-0.536 1.976,-0.677 -2.786,0.368 -2.656,-0.55 -5.382,0.101 0.671,-0.471 1.383,-0.784 2.099,-1.184 -2.271,0.138 -5.424,1.322 -4.451,0.244 -3.705,1.654 -10.286,3.975 -13.979,7.438 l -0.116,-0.776 c -1.692,2.031 -7.379,6.066 -7.832,8.699 l -0.453,0.105 c -0.879,1.491 -1.45,3.18 -2.148,4.713 -1.151,1.963 -1.688,0.756 -1.524,1.064 -2.265,4.592 -3.392,8.45 -4.363,11.616 0.692,1.035 0.017,6.232 0.278,10.391 -1.136,20.5440001 14.418,40.489 31.42,45.093 2.492,0.893 6.197,0.861 9.349,0.949 -3.718,-1.064 -4.198,-0.563 -7.822,-1.826 -2.613,-1.232 -3.185,-2.637 -5.037,-4.244 l 0.733,1.295 c -3.63,-1.285 -2.111,-1.59 -5.065,-2.525 l 0.783,-1.021 c -1.177,-0.09 -3.117,-1.982 -3.647,-3.033 l -1.288,0.051 c -1.546,-1.906 -2.371,-3.283 -2.31,-4.35 l -0.416,0.742 c -0.471,-0.809 -5.691,-7.1579999 -2.983,-5.68 -0.503,-0.458 -1.172,-0.7469999 -1.897,-2.0659999 l 0.551,-0.629 c -1.301,-1.677 -2.398,-3.826 -2.314,-4.542 0.695,0.938 1.177,1.114 1.655,1.275 -3.291,-8.164 -3.476,-0.449 -5.967,-8.31 l 0.526,-0.042 c -0.403,-0.611 -0.65,-1.27 -0.974,-1.919 l 0.23,-2.285 c -2.368,-2.7360001 -0.662,-11.6450001 -0.319,-16.5300001 0.235,-1.986 1.977,-4.101 3.3,-7.418 l -0.806,-0.138 c 1.542,-2.688 8.802,-10.799 12.166,-10.383 1.629,-2.046 -0.324,-0.008 -0.643,-0.522 3.579,-3.703 4.704,-2.616 7.119,-3.283 2.603,-1.545 -2.235,0.604 -1.001,-0.589 4.503,-1.149 3.19,-2.614 9.063,-3.197 0.62,0.352 -1.437,0.544 -1.953,1.001 3.75,-1.836 11.869,-1.417 17.145,1.018 6.117,2.861 12.994,11.314 13.266,19.267 l 0.309,0.083 c -0.156,3.162 0.484,6.819 -0.627,10.177 l 0.751,-1.591"
         id="path4264"
         inkscape:connector-curvature="0"
         style="fill:#a80030;filter:url(#filter4928)" />
      <path
         transform="matrix(0.10522281,-0.02234674,0.00614891,0.1300007,4.500965,28.134332)"
         i:knockout="Off"
         d="m 37.734081,-9.3549409 -0.211,1.047 c 0.983,1.335 1.763,2.781 3.016,3.821 -0.902,-1.759 -1.571,-2.486 -2.805,-4.868"
         id="path4266"
         inkscape:connector-curvature="0"
         style="fill:#a80030;filter:url(#filter4928)" />
      <path
         transform="matrix(0.10522281,-0.02234674,0.00614891,0.1300007,4.500965,28.134332)"
         i:knockout="Off"
         d="m 40.055081,-9.4449409 c -0.52,-0.5760001 -0.826,-1.2680001 -1.172,-1.9560001 0.33,1.211 1.006,2.2520001 1.633,3.3120001 l -0.461,-1.356"
         id="path4268"
         inkscape:connector-curvature="0"
         style="fill:#a80030;filter:url(#filter4928)" />
      <path
         transform="matrix(0.10522281,-0.02234674,0.00614891,0.1300007,4.500965,28.134332)"
         i:knockout="Off"
         d="m 81.139081,-18.374941 -0.219,0.552 c -0.402,2.858 -1.273,5.686 -2.605,8.3090001 1.472,-2.7670001 2.421,-5.7940001 2.824,-8.8610001"
         id="path4270"
         inkscape:connector-curvature="0"
         style="fill:#a80030;filter:url(#filter4928)" />
      <path
         transform="matrix(0.10522281,-0.02234674,0.00614891,0.1300007,4.500965,28.134332)"
         i:knockout="Off"
         d="m 48.674081,-58.603941 c 1.009,-0.369 2.482,-0.203 3.556,-0.446 -1.398,0.117 -2.789,0.187 -4.162,0.362 l 0.606,0.084"
         id="path4272"
         inkscape:connector-curvature="0"
         style="fill:#a80030;filter:url(#filter4928)" />
      <path
         transform="matrix(0.10522281,-0.02234674,0.00614891,0.1300007,4.500965,28.134332)"
         i:knockout="Off"
         d="m 13.203081,-39.741941 c 0.233,2.154 -1.62,2.991 0.41,1.569 1.09,-2.454 -0.424,-0.677 -0.41,-1.569"
         id="path4274"
         inkscape:connector-curvature="0"
         style="fill:#a80030;filter:url(#filter4928)" />
      <path
         transform="matrix(0.10522281,-0.02234674,0.00614891,0.1300007,4.500965,28.134332)"
         i:knockout="Off"
         d="m 10.815081,-29.767941 c 0.469,-1.437 0.553,-2.299 0.732,-3.132 -1.293,1.654 -0.596,2.007 -0.732,3.132"
         id="path4276"
         inkscape:connector-curvature="0"
         style="fill:#a80030;filter:url(#filter4928)" />
    </g>
    <use
       x="0"
       y="0"
       inkscape:tiled-clone-of="#g11116"
       xlink:href="#g11116"
       transform="matrix(1.0014974,-0.00549089,0.00549089,1.0014974,1.0484314,0.14962842)"
       id="use4106"
       style="opacity:0.99965695;filter:url(#filter4108)"
       width="88"
       height="32" />
    <use
       x="0"
       y="0"
       inkscape:tiled-clone-of="#g11116"
       xlink:href="#g11116"
       transform="matrix(0.99850588,-0.00554445,0.00554445,0.99850588,4.1082601,-2.0268711)"
       id="use4112"
       width="88"
       height="32"
       style="filter:url(#filter4114)" />
    <use
       x="0"
       y="0"
       inkscape:tiled-clone-of="#g11116"
       xlink:href="#g11116"
       transform="matrix(0.9985515,0.00325505,-0.00325505,0.9985515,5.2600991,-2.2200882)"
       id="use4118"
       width="88"
       height="32"
       style="filter:url(#filter4120)" />
  </g>
</svg>
